<svg version="1.1" xmlns="http://www.w3.org/2000/svg" width="500px" height="500px" viewBox="0 0 1200 1200" preserveAspectRatio="xMidYMid meet">
<rect width="1200" height="1200" fill="#ffffff" rx="50"/>
  <g transform="translate(0,1200) scale(0.1,-0.1)">
    <path fill="#22C55E" d="M5740 7755 c-228 -33 -399 -87 -599 -191 -176 -91 -307 -186 -454 -331 -100 -99 -234 -264 -301 -371 -55 -88 -140 -269 -178 -381 -52 -152 -74 -260 -95 -462 -15 -145 -15 -183 -4 -290 23 -224 70 -423 141 -601 71 -176 250 -488 281 -488 15 0 11 17 -31 104 -206 437 -245 924 -110 1394 148 518 543 994 1006 1213 104 50 299 119 389 138 28 6 70 15 95 20 25 5 111 15 191 22 116 10 169 10 265 0 230 -24 411 -65 549 -126 17 -7 55 -23 85 -36 119 -50 238 -120 364 -216 73 -56 105 -68 87 -34 -11 20 -188 185 -261 242 -344 272 -747 411 -1177 408 -87 -1 -196 -7 -243 -14z"/>
    <path fill="#22C55E" d="M7450 7361 c0 -5 13 -35 30 -66 68 -130 136 -348 171 -552 80 -464 -15 -953 -262 -1349 -143 -229 -340 -430 -579 -591 -89 -60 -274 -155 -345 -178 -27 -9 -59 -20 -70 -25 -35 -16 -190 -57 -300 -79 -95 -20 -290 -34 -381 -28 -402 27 -749 150 -1050 374 -71 52 -94 63 -94 43 0 -13 129 -137 235 -225 241 -201 531 -337 855 -401 107 -21 154 -25 325 -26 195 0 224 3 415 41 54 11 231 67 280 88 313 136 595 342 773 563 267 334 392 644 427 1065 17 198 -9 465 -60 625 -4 14 -16 52 -25 85 -44 153 -175 430 -266 562 -16 23 -29 46 -29 52 0 6 -9 15 -19 21 -24 12 -31 13 -31 1z"/>
    
    <path fill="#010151" d="M5940 7133 c-45 -59 -107 -135 -241 -297 -96 -117 -354 -432 -494 -606 -60 -74 -133 -163 -162 -197 -29 -33 -53 -66 -53 -72 0 -10 275 -345 436 -530 17 -20 95 -115 174 -211 78 -96 161 -195 184 -218 87 -93 215 -125 326 -83 50 19 87 51 348 313 161 160 291 294 290 298 -2 4 -54 61 -116 126 l-113 119 -20 -25 c-26 -32 -208 -217 -372 -378 l-125 -124 -78 99 c-44 54 -89 109 -100 123 -12 14 -55 66 -96 115 -144 175 -282 340 -300 359 -17 18 -16 21 18 60 73 86 392 482 463 575 40 53 81 97 90 98 10 2 38 -26 73 -70 31 -39 121 -144 200 -233 79 -88 163 -186 188 -217 25 -31 50 -58 55 -60 12 -5 225 227 225 246 0 7 -16 29 -36 48 -20 18 -82 86 -137 149 -56 63 -179 200 -272 305 -94 104 -198 225 -233 268 -35 42 -66 77 -70 77 -4 0 -27 -26 -52 -57z"/>
  </g>
</svg>
